<svg width="18" height="20" viewBox="0 0 18 20" fill="none" xmlns="http://www.w3.org/2000/svg">
<path d="M9 2.66671C6.97496 2.66671 5.33333 4.30833 5.33333 6.33337C5.33333 8.35842 6.97496 10 9 10C11.025 10 12.6667 8.35842 12.6667 6.33337C12.6667 4.30833 11.025 2.66671 9 2.66671ZM3.5 6.33337C3.5 3.29581 5.96243 0.833374 9 0.833374C12.0376 0.833374 14.5 3.29581 14.5 6.33337C14.5 9.37094 12.0376 11.8334 9 11.8334C5.96243 11.8334 3.5 9.37094 3.5 6.33337ZM5.33333 15.5C3.81455 15.5 2.58333 16.7313 2.58333 18.25C2.58333 18.7563 2.17293 19.1667 1.66667 19.1667C1.16041 19.1667 0.75 18.7563 0.75 18.25C0.75 15.7187 2.80203 13.6667 5.33333 13.6667H12.6667C15.198 13.6667 17.25 15.7187 17.25 18.25C17.25 18.7563 16.8396 19.1667 16.3333 19.1667C15.8271 19.1667 15.4167 18.7563 15.4167 18.25C15.4167 16.7313 14.1854 15.5 12.6667 15.5H5.33333Z" fill="white"/>
</svg>
