<svg width="16" height="16" viewBox="0 0 16 16" fill="none" xmlns="http://www.w3.org/2000/svg">
<g opacity="0.5">
<path d="M2.66669 4.66667C2.66669 4.29848 2.96516 4 3.33335 4H4.00002C4.36821 4 4.66669 4.29848 4.66669 4.66667C4.66669 5.03486 4.36821 5.33333 4.00002 5.33333H3.33335C2.96516 5.33333 2.66669 5.03486 2.66669 4.66667ZM6.00002 4.66667C6.00002 4.29848 6.2985 4 6.66669 4H12.6667C13.0349 4 13.3334 4.29848 13.3334 4.66667C13.3334 5.03486 13.0349 5.33333 12.6667 5.33333H6.66669C6.2985 5.33333 6.00002 5.03486 6.00002 4.66667ZM2.66669 8C2.66669 7.63181 2.96516 7.33333 3.33335 7.33333H4.00002C4.36821 7.33333 4.66669 7.63181 4.66669 8C4.66669 8.36819 4.36821 8.66667 4.00002 8.66667H3.33335C2.96516 8.66667 2.66669 8.36819 2.66669 8ZM6.00002 8C6.00002 7.63181 6.2985 7.33333 6.66669 7.33333H12.6667C13.0349 7.33333 13.3334 7.63181 13.3334 8C13.3334 8.36819 13.0349 8.66667 12.6667 8.66667H6.66669C6.2985 8.66667 6.00002 8.36819 6.00002 8ZM2.66669 11.3333C2.66669 10.9651 2.96516 10.6667 3.33335 10.6667H4.00002C4.36821 10.6667 4.66669 10.9651 4.66669 11.3333C4.66669 11.7015 4.36821 12 4.00002 12H3.33335C2.96516 12 2.66669 11.7015 2.66669 11.3333ZM6.00002 11.3333C6.00002 10.9651 6.2985 10.6667 6.66669 10.6667H12.6667C13.0349 10.6667 13.3334 10.9651 13.3334 11.3333C13.3334 11.7015 13.0349 12 12.6667 12H6.66669C6.2985 12 6.00002 11.7015 6.00002 11.3333Z" fill="white"/>
</g>
</svg>
